<?xml version="1.0" encoding="utf-8"?>
<!-- Generator: Adobe Illustrator 23.0.1, SVG Export Plug-In . SVG Version: 6.00 Build 0)  -->
<svg version="1.1" id="custom-logo" xmlns="http://www.w3.org/2000/svg" xmlns:xlink="http://www.w3.org/1999/xlink" x="0px"
	 y="0px" viewBox="0 0 512 512" style="enable-background:new 0 0 512 512;" xml:space="preserve">
<style type="text/css">
	.st0{filter:url(#a);}
	.st1{opacity:0.3;}
	.st2{fill:#6C31E3;}
	.st3{fill:url(#SVGID_1_);}
	.st4{fill:url(#SVGID_2_);}
	.st5{fill:url(#SVGID_3_);}
	.st6{fill:url(#SVGID_4_);}
	.st7{fill-rule:evenodd;clip-rule:evenodd;fill:url(#SVGID_5_);}
	.st8{fill-rule:evenodd;clip-rule:evenodd;fill:url(#SVGID_6_);}
	.st9{fill-rule:evenodd;clip-rule:evenodd;fill:url(#SVGID_7_);}
	.st10{fill-rule:evenodd;clip-rule:evenodd;fill:url(#SVGID_8_);}
</style>
<filter  color-interpolation-filters="sRGB" filterUnits="userSpaceOnUse" height="443.2" id="a" width="351.1" x="80.1" y="37">
	<feFlood  flood-opacity="0" result="BackgroundImageFix"></feFlood>
	<feBlend  in="SourceGraphic" in2="BackgroundImageFix" mode="normal" result="shape"></feBlend>
	<feGaussianBlur  result="effect1_foregroundBlur_744_9191" stdDeviation="6.5"></feGaussianBlur>
</filter>
<g class="st0">
	<g>
		<path class="st1" d="M359.2,437.5c-2.6,19-21.3,33.9-40,28.7c-26.5-7.2-57.2-18.6-84.8-20.7l-42.4-3.2c-6.8-0.5-13.2-3.4-18-8.3
			l-73-74.8c-7.9-8.2-10.1-20.3-5.4-30.7c0,0,45-98.6,46.8-103.7c1.6-5.1,7.8-49.9,11.4-73.9c1-6.4,4.2-12.2,9-16.5L249,57.2
			c11.5-10.3,29.2-9.4,39.5,2.1c0.4,0.4,0.7,0.8,1.1,1.3l72.6,91.6c4.1,5.2,6.2,11.7,6.2,18.3c0,17.3,1.5,53,11.2,76
			c9.6,20.7,21.6,40.2,35.6,58.2c3.5,4.5,3.9,10.7,1,15.6c-6.3,10.7-18.9,31.3-36.6,57.6C368.4,396,361.4,416.4,359.2,437.5
			L359.2,437.5z"/>
	</g>
</g>
<path id="arrow" class="st2" d="M359.9,434.3c-2.6,19.1-21.3,34-40,28.9c-26.4-7.3-57-18.7-84.7-20.8l-42.3-3.2
	c-6.8-0.5-13.2-3.5-18-8.4l-73-75c-8-8.2-10.2-20.5-5.4-31c0,0,45.1-99,46.8-104.2c1.7-5.1,7.8-50,11.4-74.2c1-6.4,4.2-12.3,9-16.6
	l86.2-77.5c11.5-10.3,29.2-9.3,39.5,2.2c0.4,0.4,0.7,0.8,1.1,1.3l72.5,92c4,5.2,6.2,11.7,6.2,18.3c0,17.4,1.5,53.2,11.1,76.3
	c9.6,20.8,21.6,40.4,35.6,58.5c3.6,4.5,4,10.7,1.1,15.7c-6.4,10.8-18.9,31.4-36.7,57.9C369.1,392.7,362.2,413.1,359.9,434.3z"/>
<radialGradient id="SVGID_1_" cx="-244.5506" cy="755.6295" r="1" gradientTransform="matrix(-48 -185 -123 32 81383 -68992.2969)" gradientUnits="userSpaceOnUse">
	<stop  offset="0" style="stop-color:#FFFFFF;stop-opacity:0.4"/>
	<stop  offset="1" style="stop-color:#000000;stop-opacity:0.1"/>
</radialGradient>
<path class="st3" d="M182.7,436.4c33.9-68.7,33-118,18.5-153c-13.2-32.4-37.9-52.8-57.3-65.5c-0.4,1.9-1,3.7-1.8,5.4L96.5,324.8
	c-4.7,10.5-2.5,22.8,5.5,31l72.9,75C177.2,433.1,179.9,435,182.7,436.4z"/>
<radialGradient id="SVGID_2_" cx="-243.6696" cy="755.819" r="1" gradientTransform="matrix(41 -310 -229 -30 183414.5938 -52511.6992)" gradientUnits="userSpaceOnUse">
	<stop  offset="0" style="stop-color:#FFFFFF;stop-opacity:0.6"/>
	<stop  offset="1" style="stop-color:#FFFFFF;stop-opacity:0.1"/>
</radialGradient>
<path class="st4" d="M274.9,297c9.1,0.9,18,2.9,26.8,6.1c27.8,10.4,53.1,33.8,74,78.9c1.5-2.6,3-5.1,4.6-7.5
	c12.8-19,25-38.3,36.7-57.9c2.9-4.9,2.5-11.2-1-15.7c-14.1-18.1-26.1-37.7-35.7-58.5c-9.6-23-11-58.9-11.1-76.3
	c0-6.6-2.1-13.1-6.2-18.3l-72.5-92l-1.2-1.5c5.3,17.5,5,31.5,1.7,44.2c-3,11.8-8.6,22.5-14.5,33.8c-2,3.8-4,7.7-5.9,11.7
	c-9.4,18-14.8,37.8-15.8,58c-1,24.2,3.9,54.5,20,95H274.9z"/>
<radialGradient id="SVGID_3_" cx="-243.6938" cy="755.4127" r="1" gradientTransform="matrix(57 -261 -178 -39 148544.5 -33846.6992)" gradientUnits="userSpaceOnUse">
	<stop  offset="0" style="stop-color:#FFFFFF;stop-opacity:0.8"/>
	<stop  offset="1" style="stop-color:#FFFFFF;stop-opacity:0.4"/>
</radialGradient>
<path class="st5" d="M274.8,297c-16.1-40.5-21-70.8-20-95c1-24,8-42,15.8-58l6-11.7c5.8-11.3,11.3-22,14.4-33.8
	c3.7-14.6,3.1-29.9-1.7-44.2c-10.4-11.4-27.9-12.3-39.4-2l-86.2,77.5c-4.8,4.3-8,10.2-9,16.6L144.2,216c0,0.7-0.2,1.3-0.3,2
	c19.4,12.6,44,33,57.3,65.3c2.6,6.4,4.8,13.1,6.4,20.4c21.9-6.1,44.6-8.4,67.2-6.8V297z"/>
<radialGradient id="SVGID_4_" cx="-245.1504" cy="756.5221" r="1" gradientTransform="matrix(-79 -133 -153 90 96702.3984 -100227.7969)" gradientUnits="userSpaceOnUse">
	<stop  offset="0" style="stop-color:#FFFFFF;stop-opacity:0.3"/>
	<stop  offset="1" style="stop-color:#000000;stop-opacity:0.3"/>
</radialGradient>
<path class="st6" d="M320,463.2c18.6,5.1,37.3-9.8,39.9-29c2.1-18.2,7.5-35.9,15.9-52.2c-21-45.1-46.3-68.5-74-78.9
	c-29.5-11-61.6-7.3-94.2,0.6c7.3,33.1,3,76.4-24.8,132.7c3.1,1.6,6.6,2.5,10.1,2.8l43.9,3.3C260.6,444.2,296.1,456.5,320,463.2z"/>
<radialGradient id="SVGID_5_" cx="-241.6636" cy="760.0626" r="1" gradientTransform="matrix(-29 136 92 20 -76633.2969 17814.9004)" gradientUnits="userSpaceOnUse">
	<stop  offset="0" style="stop-color:#FFFFFF;stop-opacity:0"/>
	<stop  offset="1" style="stop-color:#FFFFFF;stop-opacity:0.2"/>
</radialGradient>
<path class="st7" d="M255,200.5c-1.1,24,1.9,51.4,18,91.8l-5-0.5c-14.5-42.1-17.7-63.7-16.6-88c1-24.3,8.9-43,16.7-59
	c2-4,6.6-11.5,8.6-15.3c5.8-11.3,9.7-17.2,13-27.5c4.8-14.4,3.8-21.2,3.2-28c3.7,24.5-10.4,45.8-21,67.5
	C262.1,159.7,256.3,179.8,255,200.5L255,200.5z"/>
<radialGradient id="SVGID_6_" cx="-239.6484" cy="757.0109" r="1" gradientTransform="matrix(72 73 155 -153 -99944.2031 133542.2031)" gradientUnits="userSpaceOnUse">
	<stop  offset="0" style="stop-color:#FFFFFF;stop-opacity:0.2"/>
	<stop  offset="1" style="stop-color:#FFFFFF;stop-opacity:0.4"/>
</radialGradient>
<path class="st8" d="M206,285.1c2,4.4,3.7,8,4.9,13.5l-4.3,1c-1.7-6.4-3-11-5.5-16.5c-14.6-34.3-38-52-57-65
	C167.1,230.5,190.8,250,206,285.1z"/>
<radialGradient id="SVGID_7_" cx="-240.6559" cy="757.7814" r="1" gradientTransform="matrix(20 118 251 -43 -185174.9063 61255.6992)" gradientUnits="userSpaceOnUse">
	<stop  offset="0" style="stop-color:#FFFFFF;stop-opacity:0.1"/>
	<stop  offset="1" style="stop-color:#FFFFFF;stop-opacity:0.3"/>
</radialGradient>
<path class="st9" d="M211.1,303c8,37.5-1,85.2-27.5,131.6c22.2-46,33-90.1,24-131l3.5-0.7V303z"/>
<radialGradient id="SVGID_8_" cx="-244.7937" cy="757.1776" r="1" gradientTransform="matrix(-162 -85 -268 510 163641.4063 -406596.3125)" gradientUnits="userSpaceOnUse">
	<stop  offset="0" style="stop-color:#FFFFFF;stop-opacity:0.2"/>
	<stop  offset="0.5" style="stop-color:#FFFFFF;stop-opacity:0.2"/>
	<stop  offset="1" style="stop-color:#FFFFFF;stop-opacity:0.3"/>
</radialGradient>
<path class="st10" d="M302.7,299.5c43.5,16.3,60.3,52,72.8,81.9c-15.5-31.2-37-65.7-74.4-78.5c-28.4-9.8-52.4-8.6-93.5,0.7l-0.9-4
	c43.6-10,66.4-11.2,96,0V299.5z"/>
</svg>
