<?xml version="1.0" encoding="utf-8"?>
<!-- Generator: Adobe Illustrator 23.0.1, SVG Export Plug-In . SVG Version: 6.00 Build 0)  -->
<svg version="1.1" id="custom-logo" xmlns="http://www.w3.org/2000/svg" xmlns:xlink="http://www.w3.org/1999/xlink" x="0px"
	 y="0px" viewBox="0 0 512 512" style="enable-background:new 0 0 512 512;" xml:space="preserve">
<style type="text/css">
	.st0{opacity:0.3;enable-background:new    ;}
	.st1{fill:#6C31E3;}
	.st2{fill:url(#SVGID_1_);}
	.st3{fill:url(#SVGID_2_);}
	.st4{fill:url(#SVGID_3_);}
	.st5{fill:url(#SVGID_4_);}
	.st6{fill-rule:evenodd;clip-rule:evenodd;fill:url(#SVGID_5_);}
	.st7{fill-rule:evenodd;clip-rule:evenodd;fill:url(#SVGID_6_);}
	.st8{fill-rule:evenodd;clip-rule:evenodd;fill:url(#SVGID_7_);}
	.st9{fill-rule:evenodd;clip-rule:evenodd;fill:url(#SVGID_8_);}
</style>
<g>
	<g>
		<path class="st0" d="M379.3,472.8c-3.1,22.7-25.5,40.5-47.8,34.3c-31.7-8.6-68.3-22.2-101.3-24.7l-50.7-3.8
			c-8.1-0.6-15.8-4.1-21.5-9.9l-87.2-89.4c-9.4-9.8-12.1-24.3-6.5-36.7c0,0,53.8-117.8,55.9-123.9c1.9-6.1,9.3-59.6,13.6-88.3
			c1.2-7.6,5-14.6,10.8-19.7l103-92.2c13.7-12.3,34.9-11.2,47.2,2.5c0.5,0.5,0.8,1,1.3,1.6l86.7,109.4c4.9,6.2,7.4,14,7.4,21.9
			c0,20.7,1.8,63.3,13.4,90.8c11.5,24.7,25.8,48,42.5,69.5c4.2,5.4,4.7,12.8,1.2,18.6c-7.5,12.8-22.6,37.4-43.7,68.8
			C390.3,423.2,381.9,447.6,379.3,472.8L379.3,472.8z"/>
	</g>
</g>
<path id="arrow" class="st1" d="M380.1,469c-3.1,22.8-25.5,40.6-47.8,34.5c-31.5-8.7-68.1-22.3-101.2-24.9l-50.5-3.8
	c-8.1-0.6-15.8-4.2-21.5-10l-87.2-89.6c-9.6-9.8-12.2-24.5-6.5-37c0,0,53.9-118.3,55.9-124.5c2-6.1,9.3-59.7,13.6-88.7
	c1.2-7.6,5-14.7,10.8-19.8l103-92.6c13.7-12.3,34.9-11.1,47.2,2.6c0.5,0.5,0.8,1,1.3,1.6l86.6,109.9c4.8,6.2,7.4,14,7.4,21.9
	c0,20.8,1.8,63.6,13.3,91.2c11.5,24.9,25.8,48.3,42.5,69.9c4.3,5.4,4.8,12.8,1.3,18.8c-7.6,12.9-22.6,37.5-43.9,69.2
	C391.1,419.3,382.9,443.7,380.1,469z"/>
<radialGradient id="SVGID_1_" cx="-489.2526" cy="2.5598" r="1.1949" gradientTransform="matrix(-48 -185 123 -32 -23635 -89966.2969)" gradientUnits="userSpaceOnUse">
	<stop  offset="0" style="stop-color:#FFFFFF;stop-opacity:0.4"/>
	<stop  offset="1" style="stop-color:#000000;stop-opacity:0.1"/>
</radialGradient>
<path class="st2" d="M168.4,471.5c40.5-82.1,39.4-141,22.1-182.8c-15.8-38.7-45.3-63.1-68.5-78.3c-0.5,2.3-1.2,4.4-2.2,6.5
	L65.4,338.2c-5.6,12.5-3,27.2,6.6,37l87.1,89.6C161.8,467.6,165.1,469.8,168.4,471.5z"/>
<radialGradient id="SVGID_2_" cx="-487.391" cy="2.4441" r="1.1949" gradientTransform="matrix(41 -310 229 30 19781.5938 -150794.7031)" gradientUnits="userSpaceOnUse">
	<stop  offset="0" style="stop-color:#FFFFFF;stop-opacity:0.6"/>
	<stop  offset="1" style="stop-color:#FFFFFF;stop-opacity:0.1"/>
</radialGradient>
<path class="st3" d="M278.6,305c10.9,1.1,21.5,3.5,32,7.3c33.2,12.4,63.4,40.4,88.4,94.3c1.8-3.1,3.6-6.1,5.5-9
	c15.3-22.7,29.9-45.8,43.9-69.2c3.5-5.9,3-13.4-1.2-18.8c-16.8-21.6-31.2-45-42.7-69.9c-11.5-27.5-13.1-70.4-13.3-91.2
	c0-7.9-2.5-15.7-7.4-21.9L297.2,16.8l-1.4-1.8c6.3,20.9,6,37.6,2,52.8c-3.6,14.1-10.3,26.9-17.3,40.4c-2.4,4.5-4.8,9.2-7,14
	c-11.2,21.5-17.7,45.2-18.9,69.3c-1.2,28.9,4.7,65.1,23.9,113.5H278.6z"/>
<radialGradient id="SVGID_3_" cx="-487.4265" cy="3.1153" r="1.1949" gradientTransform="matrix(57 -261 178 39 27406.5 -127035.7031)" gradientUnits="userSpaceOnUse">
	<stop  offset="0" style="stop-color:#FFFFFF;stop-opacity:0.8"/>
	<stop  offset="1" style="stop-color:#FFFFFF;stop-opacity:0.4"/>
</radialGradient>
<path class="st4" d="M278.5,305c-19.2-48.4-25.1-84.6-23.9-113.5c1.2-28.7,9.6-50.2,18.9-69.3l7.2-14c6.9-13.5,13.5-26.3,17.2-40.4
	c4.4-17.4,3.7-35.7-2-52.8c-12.4-13.6-33.3-14.7-47.1-2.4l-103,92.6c-5.7,5.1-9.6,12.2-10.8,19.8l-12.5,83.2c0,0.8-0.2,1.6-0.4,2.4
	c23.2,15.1,52.6,39.4,68.5,78c3.1,7.6,5.7,15.7,7.6,24.4c26.2-7.3,53.3-10,80.3-8.1V305z"/>
<radialGradient id="SVGID_4_" cx="-490.5684" cy="0.9009" r="1.1949" gradientTransform="matrix(-79 -133 153 -90 -38558.6016 -64659.7969)" gradientUnits="userSpaceOnUse">
	<stop  offset="0" style="stop-color:#FFFFFF;stop-opacity:0.3"/>
	<stop  offset="1" style="stop-color:#000000;stop-opacity:0.3"/>
</radialGradient>
<path class="st5" d="M332.5,503.5c22.2,6.1,44.6-11.7,47.7-34.7c2.5-21.7,9-42.9,19-62.4c-25.1-53.9-55.3-81.8-88.4-94.3
	c-35.2-13.1-73.6-8.7-112.6,0.7c8.7,39.5,3.6,91.3-29.6,158.6c3.7,1.9,7.9,3,12.1,3.3l52.5,3.9C261.5,480.8,303.9,495.5,332.5,503.5
	z"/>
<radialGradient id="SVGID_5_" cx="-483.4861" cy="-6.1697" r="1.1949" gradientTransform="matrix(-29 136 -92 -20 -14279.2969 65759.8984)" gradientUnits="userSpaceOnUse">
	<stop  offset="0" style="stop-color:#FFFFFF;stop-opacity:0"/>
	<stop  offset="1" style="stop-color:#FFFFFF;stop-opacity:0.2"/>
</radialGradient>
<path class="st6" d="M254.8,189.6c-1.3,28.7,2.3,61.4,21.5,109.7l-6-0.6c-17.3-50.3-21.1-76.1-19.8-105.1c1.2-29,10.6-51.4,20-70.5
	c2.4-4.8,7.9-13.7,10.3-18.3c6.9-13.5,11.6-20.6,15.5-32.9c5.7-17.2,4.5-25.3,3.8-33.5c4.4,29.3-12.4,54.7-25.1,80.7
	C263.3,140.9,256.4,164.9,254.8,189.6L254.8,189.6z"/>
<radialGradient id="SVGID_6_" cx="-479.4966" cy="3.403711e-02" r="1.1949" gradientTransform="matrix(72 73 -155 153 34643.7969 35217.2031)" gradientUnits="userSpaceOnUse">
	<stop  offset="0" style="stop-color:#FFFFFF;stop-opacity:0.2"/>
	<stop  offset="1" style="stop-color:#FFFFFF;stop-opacity:0.4"/>
</radialGradient>
<path class="st7" d="M196.2,290.7c2.4,5.3,4.4,9.6,5.9,16.1l-5.1,1.2c-2-7.6-3.6-13.1-6.6-19.7c-17.4-41-45.4-62.1-68.1-77.7
	C149.8,225.5,178.1,248.8,196.2,290.7z"/>
<radialGradient id="SVGID_7_" cx="-481.295" cy="-1.5296" r="1.1949" gradientTransform="matrix(20 118 -251 43 9449.0938 57135.6992)" gradientUnits="userSpaceOnUse">
	<stop  offset="0" style="stop-color:#FFFFFF;stop-opacity:0.1"/>
	<stop  offset="1" style="stop-color:#FFFFFF;stop-opacity:0.3"/>
</radialGradient>
<path class="st8" d="M202.3,312.1c9.6,44.8-1.2,101.8-32.9,157.2c26.5-55,39.4-107.7,28.7-156.5l4.2-0.8V312.1z"/>
<radialGradient id="SVGID_8_" cx="-489.7562" cy="-0.3711" r="1.1949" gradientTransform="matrix(-162 -85 268 -510 -78843.5938 -41424.3125)" gradientUnits="userSpaceOnUse">
	<stop  offset="0" style="stop-color:#FFFFFF;stop-opacity:0.2"/>
	<stop  offset="0.5" style="stop-color:#FFFFFF;stop-opacity:0.2"/>
	<stop  offset="1" style="stop-color:#FFFFFF;stop-opacity:0.3"/>
</radialGradient>
<path class="st9" d="M311.8,307.9c52,19.5,72,62.1,87,97.9c-18.5-37.3-44.2-78.5-88.9-93.8c-33.9-11.7-62.6-10.3-111.7,0.8l-1.1-4.8
	c52.1-11.9,79.3-13.4,114.7,0V307.9z"/>
</svg>
