<?xml version="1.0" encoding="utf-8"?>
<!-- Generator: Adobe Illustrator 23.0.1, SVG Export Plug-In . SVG Version: 6.00 Build 0)  -->
<svg version="1.1" id="custom-logo" xmlns="http://www.w3.org/2000/svg" xmlns:xlink="http://www.w3.org/1999/xlink" x="0px"
	 y="0px" viewBox="0 0 512 512" style="enable-background:new 0 0 512 512;" xml:space="preserve">
<style type="text/css">
	.st0{opacity:0.3;enable-background:new    ;}
	.st1{fill:#6C31E3;}
	.st2{fill:url(#SVGID_1_);}
	.st3{fill:url(#SVGID_2_);}
	.st4{fill:url(#SVGID_3_);}
	.st5{fill:url(#SVGID_4_);}
	.st6{fill-rule:evenodd;clip-rule:evenodd;fill:url(#SVGID_5_);}
	.st7{fill-rule:evenodd;clip-rule:evenodd;fill:url(#SVGID_6_);}
	.st8{fill-rule:evenodd;clip-rule:evenodd;fill:url(#SVGID_7_);}
	.st9{fill-rule:evenodd;clip-rule:evenodd;fill:url(#SVGID_8_);}
</style>
<g>
	<g>
		<path class="st0" d="M365.9,449.3c-2.8,20.2-22.7,36.1-42.6,30.6c-28.3-7.7-60.9-19.8-90.3-22l-45.2-3.4
			c-7.2-0.5-14.1-3.7-19.2-8.8l-77.7-79.7c-8.4-8.7-10.8-21.7-5.8-32.7c0,0,48-105,49.8-110.5c1.7-5.4,8.3-53.1,12.1-78.7
			c1.1-6.8,4.5-13,9.6-17.6l91.8-82.2c12.2-11,31.1-10,42.1,2.2c0.4,0.4,0.7,0.9,1.2,1.4l77.3,97.5c4.4,5.5,6.6,12.5,6.6,19.5
			c0,18.5,1.6,56.4,11.9,81c10.3,22,23,42.8,37.9,62c3.7,4.8,4.2,11.4,1.1,16.6c-6.7,11.4-20.1,33.3-39,61.3
			C375.7,405.1,368.3,426.8,365.9,449.3L365.9,449.3z"/>
	</g>
</g>
<path id="arrow" class="st1" d="M366.6,445.9c-2.8,20.3-22.7,36.2-42.6,30.8c-28.1-7.8-60.7-19.9-90.2-22.2l-45-3.4
	c-7.2-0.5-14.1-3.7-19.2-8.9l-77.7-79.9c-8.6-8.7-10.9-21.8-5.8-33c0,0,48.1-105.5,49.8-111c1.8-5.4,8.3-53.2,12.1-79.1
	c1.1-6.8,4.5-13.1,9.6-17.7L249.5,39c12.2-11,31.1-9.9,42.1,2.3c0.4,0.4,0.7,0.9,1.2,1.4l77.2,98c4.3,5.5,6.6,12.5,6.6,19.5
	c0,18.5,1.6,56.7,11.9,81.3c10.3,22.2,23,43.1,37.9,62.3c3.8,4.8,4.3,11.4,1.2,16.8c-6.8,11.5-20.1,33.4-39.1,61.7
	C376.5,401.6,369.1,423.4,366.6,445.9z"/>
<radialGradient id="SVGID_1_" cx="-733.7025" cy="752.9492" r="1.0653" gradientTransform="matrix(-48 -185 -123 32 57569 -159388.2969)" gradientUnits="userSpaceOnUse">
	<stop  offset="0" style="stop-color:#FFFFFF;stop-opacity:0.4"/>
	<stop  offset="1" style="stop-color:#000000;stop-opacity:0.1"/>
</radialGradient>
<path class="st2" d="M177.9,448.2c36.1-73.2,35.1-125.7,19.7-163c-14.1-34.5-40.4-56.3-61.1-69.8c-0.4,2.1-1.1,3.9-2,5.8L86.1,329.3
	c-5,11.1-2.7,24.3,5.9,33l77.7,79.9C172,444.7,175,446.6,177.9,448.2z"/>
<radialGradient id="SVGID_2_" cx="-731.0261" cy="753.4294" r="1.0653" gradientTransform="matrix(41 -310 -229 -30 202854.5938 -203657.7031)" gradientUnits="userSpaceOnUse">
	<stop  offset="0" style="stop-color:#FFFFFF;stop-opacity:0.6"/>
	<stop  offset="1" style="stop-color:#FFFFFF;stop-opacity:0.1"/>
</radialGradient>
<path class="st3" d="M276.2,299.7c9.7,1,19.2,3.1,28.5,6.5c29.6,11.1,56.5,36,78.8,84.1c1.6-2.8,3.2-5.4,4.9-8
	c13.6-20.2,26.7-40.8,39.1-61.7c3.1-5.3,2.7-11.9-1.1-16.8c-15-19.3-27.8-40.1-38.1-62.3c-10.3-24.5-11.7-62.8-11.9-81.3
	c0-7-2.2-14-6.6-19.5l-77.2-97.9l-1.2-1.6c5.6,18.6,5.3,33.5,1.8,47.1c-3.2,12.6-9.2,24-15.4,36c-2.1,4-4.3,8.2-6.2,12.5
	c-10,19.2-15.8,40.3-16.9,61.8C253.7,224.3,258.9,256.6,276.2,299.7L276.2,299.7z"/>
<radialGradient id="SVGID_3_" cx="-731.0945" cy="752.2579" r="1.0653" gradientTransform="matrix(57 -261 -178 -39 175760.5 -161178.7031)" gradientUnits="userSpaceOnUse">
	<stop  offset="0" style="stop-color:#FFFFFF;stop-opacity:0.8"/>
	<stop  offset="1" style="stop-color:#FFFFFF;stop-opacity:0.4"/>
</radialGradient>
<path class="st4" d="M276.1,299.7c-17.1-43.2-22.4-75.4-21.3-101.2c1.1-25.6,8.6-44.8,16.9-61.8l6.4-12.5c6.2-12,12-23.4,15.3-36
	c3.9-15.5,3.3-31.8-1.8-47.1c-11.1-12.1-29.7-13.1-42-2.1l-91.8,82.6c-5.1,4.5-8.6,10.9-9.6,17.7L137,213.4c0,0.7-0.2,1.4-0.4,2.1
	c20.7,13.5,46.9,35.1,61.1,69.5c2.8,6.8,5.1,14,6.8,21.8C227.8,300.3,252,297.9,276.1,299.7L276.1,299.7z"/>
<radialGradient id="SVGID_4_" cx="-735.5409" cy="755.5847" r="1.0653" gradientTransform="matrix(-79 -133 -153 90 57822.3984 -165351.7969)" gradientUnits="userSpaceOnUse">
	<stop  offset="0" style="stop-color:#FFFFFF;stop-opacity:0.3"/>
	<stop  offset="1" style="stop-color:#000000;stop-opacity:0.3"/>
</radialGradient>
<path class="st5" d="M324.2,476.7c19.8,5.4,39.8-10.4,42.5-30.9c2.2-19.3,8-38.2,16.9-55.6c-22.4-48.1-49.3-72.9-78.8-84.1
	c-31.4-11.7-65.6-7.8-100.4,0.6c7.8,35.2,3.2,81.4-26.4,141.4c3.3,1.7,7,2.7,10.8,2.9l46.8,3.5C260.9,456.4,298.7,469.5,324.2,476.7
	z"/>
<radialGradient id="SVGID_5_" cx="-725.0441" cy="766.2026" r="1.0653" gradientTransform="matrix(-29 136 92 20 -91213.2969 83424.8984)" gradientUnits="userSpaceOnUse">
	<stop  offset="0" style="stop-color:#FFFFFF;stop-opacity:0"/>
	<stop  offset="1" style="stop-color:#FFFFFF;stop-opacity:0.2"/>
</radialGradient>
<path class="st6" d="M254.9,196.8c-1.2,25.6,2.1,54.7,19.2,97.8l-5.3-0.5c-15.4-44.8-18.8-67.8-17.7-93.7
	c1.1-25.9,9.5-45.8,17.8-62.9c2.1-4.3,7-12.2,9.2-16.3c6.2-12,10.3-18.4,13.8-29.3c5.1-15.3,4-22.6,3.4-29.9
	c3.9,26.1-11.1,48.8-22.4,71.9C262.5,153.4,256.4,174.8,254.9,196.8L254.9,196.8z"/>
<radialGradient id="SVGID_6_" cx="-719.0121" cy="757.014" r="1.0653" gradientTransform="matrix(72 73 155 -153 -65438.2031 168534.2031)" gradientUnits="userSpaceOnUse">
	<stop  offset="0" style="stop-color:#FFFFFF;stop-opacity:0.2"/>
	<stop  offset="1" style="stop-color:#FFFFFF;stop-opacity:0.4"/>
</radialGradient>
<path class="st7" d="M202.7,287c2.1,4.7,3.9,8.6,5.3,14.4l-4.5,1.1c-1.8-6.8-3.2-11.7-5.9-17.6c-15.5-36.6-40.5-55.4-60.7-69.3
	C161.3,228.8,186.6,249.6,202.7,287z"/>
<radialGradient id="SVGID_7_" cx="-721.9622" cy="759.333" r="1.0653" gradientTransform="matrix(20 118 251 -43 -175940.9063 118117.7031)" gradientUnits="userSpaceOnUse">
	<stop  offset="0" style="stop-color:#FFFFFF;stop-opacity:0.1"/>
	<stop  offset="1" style="stop-color:#FFFFFF;stop-opacity:0.3"/>
</radialGradient>
<path class="st8" d="M208.1,306c8.6,39.9-1.1,90.8-29.3,140.2c23.6-49,35.1-96,25.6-139.5L208.1,306L208.1,306L208.1,306z"/>
<radialGradient id="SVGID_8_" cx="-734.4376" cy="757.538" r="1.0653" gradientTransform="matrix(-162 -85 -268 510 84423.4063 -448392.3125)" gradientUnits="userSpaceOnUse">
	<stop  offset="0" style="stop-color:#FFFFFF;stop-opacity:0.2"/>
	<stop  offset="0.5" style="stop-color:#FFFFFF;stop-opacity:0.2"/>
	<stop  offset="1" style="stop-color:#FFFFFF;stop-opacity:0.3"/>
</radialGradient>
<path class="st9" d="M305.8,302.3c46.4,17.4,64.2,55.4,77.6,87.3c-16.5-33.3-39.4-70-79.3-83.6c-30.2-10.4-55.8-9.2-99.6,0.7l-1-4.3
	C249.9,291.8,274.2,290.4,305.8,302.3L305.8,302.3z"/>
</svg>
